#!OML:ASF H:\Terrain\Walking\May29\JustinRory\Justin.ASF
:FULLY-SPECIFIED
:DEGREES
127
root 8.02021 17.7776 4.58198 -179.716 -3.00561 -176.505
lowerback 3.39733 0.22411 -1.19032
upperback 1.74733 0.18844 1.91137
thorax -0.122966 0.0438359 2.62297
lowerneck -7.73166 -11.8671 -18.3645
upperneck 17.1019 -16.6691 11.4205
head 9.1398 -8.37947 4.77851
rclavicle 5.55665e-015 -2.28602e-015
rhumerus -18.5364 16.4731 -94.3847
rradius 82.6746
rwrist -38.9412
rhand -27.6917 11.3486
rfingers 7.12502
rthumb -1.08811 -18.6284
lclavicle 5.55665e-015 -2.28602e-015
lhumerus -34.6361 3.9276 79.3068
lradius 47.3264
lwrist -3.68957
lhand -0.338064 31.7538
lfingers 7.12502
lthumb 25.2665 60.1007
rfemur -13.8714 -2.29661 24.1345
rtibia 29.3412
rfoot -13.0104 1.04741
rtoes 7.99096
lfemur -9.36761 1.31956 -10.6699
ltibia 35.867
lfoot -15.2848 -4.11328
ltoes -13.75
128
root 7.981 17.7787 4.58445 -179.867 -2.83281 -176.862
lowerback 3.46962 0.149621 -1.54355
upperback 1.74837 0.0822597 1.78995
thorax -0.156709 -0.00849772 2.70064
lowerneck -7.63549 -11.7201 -18.2793
upperneck 17.3287 -16.5283 11.2995
head 9.1573 -8.3353 4.75333
rclavicle -3.44767e-015 2.13694e-015
rhumerus -17.5041 16.2995 -93.8523
rradius 81.3742
rwrist -37.7182
rhand -25.8121 12.444
rfingers 7.12502
rthumb 0.72719 -17.5345
lclavicle -3.44767e-015 2.13694e-015
lhumerus -34.5343 3.38658 79.2256
lradius 47.5615
lwrist -3.51131
lhand -0.215649 32.0988
lfingers 7.12502
lthumb 25.3838 60.4291
rfemur -13.7235 -2.11972 23.5656
rtibia 29.5052
rfoot -13.141 1.11472
rtoes 9.97025
lfemur -8.8829 1.235 -11.2952
ltibia 35.5
lfoot -15.4631 -3.49916
ltoes -14.6242
129
root 7.94282 17.7709 4.59497 -179.853 -2.90521 -177.486
lowerback 3.44773 0.0335723 -2.12347
upperback 1.71079 -0.0801456 1.54351
thorax -0.172732 -0.0868548 2.77924
lowerneck -7.80221 -11.6302 -17.9058
upperneck 17.7135 -16.4264 10.9484
head 9.23605 -8.29903 4.58458
rclavicle -8.63471e-016 -2.48481e-016
rhumerus -16.3385 16.0987 -93.4231
rradius 80.7483
rwrist -37.889
rhand -25.1421 11.0306
rfingers 7.12502
rthumb 1.37436 -18.9447
lclavicle -8.63471e-016 -2.48481e-016
lhumerus -34.2512 2.8234 79.0964
lradius 47.6441
lwrist -3.55839
lhand -0.406934 33.198
lfingers 7.12502
lthumb 25.2005 61.5541
rfemur -13.788 -2.29831 22.7446
rtibia 29.6494
rfoot -13.0157 1.15349
rtoes 7.80809
lfemur -8.62228 0.936681 -12.2069
ltibia 35.076
lfoot -15.6043 -3.07606
ltoes -14.9629
130
root 7.90969 17.7646 4.60225 -179.727 -2.7672 -177.532
lowerback 3.3107 -0.0280132 -2.19472
upperback 1.56098 -0.152939 1.48102
thorax -0.245064 -0.116596 2.75733
lowerneck -7.96884 -11.5361 -17.486
upperneck 18.1599 -16.263 10.298
head 9.29701 -8.25521 4.31588
rclavicle -3.54085e-016 -1.49089e-015
rhumerus -15.1632 15.9935 -93.1123
rradius 79.4768
rwrist -38.1637
rhand -24.748 10.6694
rfingers 7.12502
rthumb 1.75498 -19.3032
lclavicle -3.54085e-016 -1.49089e-015
lhumerus -34.0153 2.48687 78.8925
lradius 47.5005
lwrist -3.7487
lhand -0.645392 33.7673
lfingers 7.12502
lthumb 24.9721 62.1555
rfemur -14.0662 -2.04025 22.6078
rtibia 29.8151
rfoot -12.9132 0.938765
rtoes 5.51675
lfemur -8.45898 0.733453 -12.4252
ltibia 34.5997
lfoot -15.915 -2.82261
ltoes -12.5552
131
root 7.87373 17.7672 4.60385 -179.757 -2.53095 -177.445
lowerback 3.24701 -0.0981166 -2.18354
upperback 1.46468 -0.241296 1.52964
thorax -0.302351 -0.157486 2.80412
lowerneck -8.05959 -11.3622 -17.3687
upperneck 18.4875 -15.9889 9.88982
head 9.33828 -8.16212 4.19701
rclavicle 1.57164e-015 1.0138e-014
rhumerus -14.194 16.4302 -92.6378
rradius 78.2638
rwrist -38.5477
rhand -26.4552 12.9121
rfingers 7.12502
rthumb 0.106129 -17.0676
lclavicle 1.57164e-015 1.0138e-014
lhumerus -33.892 2.38454 78.7085
lradius 47.3807
lwrist -3.90223
lhand -1.17054 33.206
lfingers 7.12502
lthumb 24.4687 61.6631
rfemur -14.1468 -1.78807 22.5716
rtibia 29.9791
rfoot -13.0067 0.905929
rtoes 5.44374
lfemur -8.07504 0.649911 -12.5038
ltibia 34.1058
lfoot -16.1316 -2.61617
ltoes -10.1383
